# xmcd
#
# Track frame offsets:
# 150
# 16668
# 43439
# 64328
# 79704
# 105507
# 131884
# 150446
# 171335
# 201997
# 227322
# 248501
# 262512
# 274791
# 290845
# 314949
# 332982
#
# Disc length: 4609 seconds
#
#
# Revision: 1
# Processed by: cddbd v1.5.1PL2 Copyright (c) Steve Scherf et al.
# Submitted via: freedbtool 1.11
#
DISCID=f311ff11
DTITLE=Stevie Ray Vaughan - Stevie Ray Vaughan Mix
DYEAR=1900
DGENRE=Blues
TTITLE0=Pride and Joy
TTITLE1=Blues at Sunrise
TTITLE2=The Sky is Crying
TTITLE3=Testify
TTITLE4=Boiler
TTITLE5=Leave My Little Girl Alone
TTITLE6=Shake For Me
TTITLE7=Tightrope
TTITLE8=Little Wing
TTITLE9=Red House
TTITLE10=Couldn't Stand the Weather
TTITLE11=They Call Me the Guitar Hurricane
TTITLE12=Scuttle Buttin'
TTITLE13=Taxman
TTITLE14=Texas Flood
TTITLE15=Cold Shot
TTITLE16=12-string Acoustic Solo
EXTD=
EXTT0=
EXTT1=
EXTT2=
EXTT3=
EXTT4=
EXTT5=
EXTT6=
EXTT7=
EXTT8=
EXTT9=
EXTT10=
EXTT11=
EXTT12=
EXTT13=
EXTT14=
EXTT15=
EXTT16=
PLAYORDER=
